<svg data-v-423bf9ae="" xmlns="http://www.w3.org/2000/svg" viewBox="0 0 456 90" class="iconLeft"><!----><!----><!----><g data-v-423bf9ae="" id="4f9ab062-caaf-4452-b162-4e05cabd2eff" fill="white" transform="matrix(6.097560881055492,0,0,6.097560881055492,144.910549592622,-8.292683827505925)"><path d="M2.07 13.50L2.07 9.20L6.45 9.20L6.45 8.34L2.07 8.34L2.07 4.68L6.78 4.68L6.78 3.82L1.19 3.82L1.19 13.50ZM8.89 13.50L8.89 6.51L8.05 6.51L8.05 13.50ZM8.95 5.11L8.95 3.82L7.99 3.82L7.99 5.11ZM14.35 13.44L14.17 12.73C13.97 12.81 13.62 12.89 13.27 12.89C12.75 12.89 12.49 12.67 12.38 12.32C12.31 12.08 12.29 11.70 12.29 11.20L12.29 7.24L14.07 7.24L14.07 6.51L12.29 6.51L12.29 4.62L11.44 4.62L11.44 6.51L10.35 6.51L10.35 7.24L11.44 7.24L11.44 11.27C11.44 11.84 11.45 12.26 11.56 12.68C11.76 13.38 12.38 13.66 13.08 13.66C13.59 13.66 14.04 13.57 14.35 13.44ZM16.44 13.50L16.44 9.20L20.82 9.20L20.82 8.34L16.44 8.34L16.44 4.68L21.14 4.68L21.14 3.82L15.55 3.82L15.55 13.50ZM28.71 10.01C28.71 7.70 27.22 6.33 25.34 6.33C23.41 6.33 21.78 7.71 21.78 9.98C21.78 12.26 23.18 13.66 25.31 13.66C27.17 13.66 28.71 12.26 28.71 10.01ZM27.85 10.00C27.85 11.87 26.63 12.87 25.31 12.87C23.86 12.87 22.67 11.87 22.67 9.95C22.67 8.05 23.94 7.13 25.33 7.13C26.64 7.13 27.85 8.06 27.85 10.00ZM36.44 11.17L35.60 11.02C35.46 12.03 34.61 12.87 33.31 12.87C32.16 12.87 30.72 12.15 30.72 9.94C30.72 8.05 31.92 7.13 33.29 7.13C34.89 7.13 35.42 8.22 35.55 9.06L36.40 8.90C36.23 7.39 35.13 6.33 33.31 6.33C31.37 6.33 29.83 7.67 29.83 9.97C29.83 12.29 31.23 13.66 33.25 13.66C35.06 13.66 36.20 12.60 36.44 11.17ZM43.74 13.50L43.74 6.51L42.90 6.51L42.90 10.23C42.90 10.89 42.80 11.41 42.52 11.86C42.24 12.31 41.58 12.85 40.64 12.85C39.91 12.85 39.47 12.63 39.17 12.32C38.89 12.01 38.71 11.47 38.71 10.54L38.71 6.51L37.84 6.51L37.84 10.65C37.84 11.69 38.02 12.36 38.33 12.78C38.72 13.33 39.41 13.66 40.35 13.66C41.61 13.66 42.55 13.02 42.90 12.14L42.90 13.50ZM45.16 12.43C45.81 13.17 46.93 13.66 48.17 13.66C49.90 13.66 50.93 12.91 50.93 11.62C50.93 10.47 50.27 9.95 48.86 9.66L47.95 9.48C46.72 9.24 46.47 8.89 46.47 8.25C46.47 7.71 46.89 7.13 48.16 7.13C48.99 7.13 49.66 7.38 50.23 7.88L50.76 7.20C50.11 6.58 49.22 6.33 48.23 6.33C46.44 6.33 45.58 7.29 45.58 8.32C45.58 9.41 46.20 9.98 47.46 10.23L48.33 10.42C49.70 10.70 50.08 11.06 50.08 11.69C50.08 12.32 49.60 12.88 48.26 12.88C47.31 12.88 46.38 12.53 45.75 11.77Z"></path></g><!----><g data-v-423bf9ae="" id="95fb608f-99df-44c6-b135-1d48a37d8eab" transform="matrix(1.666666548929105,0,0,1.666666548929105,-16.94999043146835,-38.53333008142194)" stroke="none" fill="white"><path d="M13.3 56.4h11.9l4.4-6.7 12.2 27.6 12.9-36.7L65 66.8l8.9-10.3h12.7c1.7 0 3-1.3 3-3s-1.3-3-3-3H71.2L67 55.2 54.5 23.3 41.2 61 30.7 37.2 22 50.4h-8.7c-1.7 0-3 1.3-3 3s1.4 3 3 3z"></path></g><!----></svg>